<svg xmlns="http://www.w3.org/2000/svg" width="512" height="512"><path d="M302.958 134.035c-10.506 0-19.012 8.471-19.012 18.999 0 10.473 8.505 19.001 19.012 19.001 10.504 0 19.01-8.528 19.01-19.001 0-10.528-8.505-18.999-19.01-18.999z" fill="#fdfdfd" data-original="#000000" xmlns="http://www.w3.org/2000/svg"/><path d="M383.179 300.081c-7.918-18.448-15.397-35.873-17.168-57.619-1.367-16.802 3.666-33.418 8.995-51.011 5.409-17.861 11.002-36.33 11.002-57.317 0-56.996-25.895-89.086-47.618-105.968C315.697 10.529 284.897 0 256 0s-59.697 10.529-82.389 28.167c-21.723 16.884-47.617 48.973-47.617 105.968 0 20.987 5.593 39.457 11.002 57.318 5.328 17.593 10.36 34.208 8.995 51.007-1.772 21.746-9.251 39.171-17.169 57.62-8.898 20.732-18.098 42.169-18.098 68.927 0 40.474 12.14 75.155 35.106 100.295C171.346 497.235 209.443 512 256 512c46.551 0 84.645-14.765 110.162-42.695 22.971-25.144 35.113-59.825 35.113-100.296.001-26.76-9.2-48.196-18.096-68.928zm-41.668 146.701c-19.294 21.119-48.063 31.826-85.511 31.826-37.453 0-66.225-10.707-85.516-31.826-17.25-18.884-26.368-45.777-26.368-77.775 0-19.897 7.132-36.516 15.391-55.758 8.227-19.167 17.549-40.89 19.765-68.082 1.879-23.119-4.322-43.593-10.319-63.393-4.921-16.249-9.569-31.598-9.569-47.641 0-34.917 11.68-61.7 34.717-79.605C219.34 34.916 247.86 33.391 256 33.391s36.661 1.525 61.899 21.139c23.037 17.906 34.717 44.687 34.717 79.605 0 16.042-4.648 31.389-9.569 47.638-5.997 19.801-12.198 40.277-10.318 63.399 2.215 27.188 11.538 48.913 19.764 68.079 8.259 19.242 15.391 35.861 15.391 55.757 0 31.995-9.12 58.888-26.373 77.774z" fill="#fdfdfd" data-original="#000000" xmlns="http://www.w3.org/2000/svg"/><path d="M287.521 77.548c-8.528 0-15.435 6.875-15.435 15.423 0 8.507 6.906 15.423 15.435 15.423 8.528 0 15.437-6.915 15.437-15.423 0-8.548-6.908-15.423-15.437-15.423z" fill="#fdfdfd" data-original="#000000" xmlns="http://www.w3.org/2000/svg"/><path d="M287.521 403.605c-8.528 0-15.435 6.915-15.435 15.423 0 8.548 6.906 15.423 15.435 15.423 8.528 0 15.437-6.875 15.437-15.423 0-8.507-6.908-15.423-15.437-15.423z" fill="#fdfdfd" data-original="#000000" xmlns="http://www.w3.org/2000/svg"/><path d="M302.958 339.966c-10.506 0-19.012 8.528-19.012 19.001 0 10.527 8.505 18.999 19.012 18.999 10.504 0 19.01-8.471 19.01-18.999 0-10.473-8.505-19.001-19.01-19.001z" fill="#fdfdfd" data-original="#000000" xmlns="http://www.w3.org/2000/svg"/></svg>